<mxfile host="65bd71144e">
    <diagram id="4ft6q48gLYiZYTZFhj56" name="第 1 页">
        <mxGraphModel dx="797" dy="431" grid="0" gridSize="10" guides="1" tooltips="1" connect="1" arrows="1" fold="1" page="1" pageScale="1" pageWidth="1169" pageHeight="827" math="0" shadow="0">
            <root>
                <mxCell id="0"/>
                <mxCell id="1" parent="0"/>
                <mxCell id="63" value="" style="rounded=1;whiteSpace=wrap;html=1;" parent="1" vertex="1">
                    <mxGeometry x="150" y="820" width="480" height="50" as="geometry"/>
                </mxCell>
                <mxCell id="29" value="" style="rounded=1;whiteSpace=wrap;html=1;" parent="1" vertex="1">
                    <mxGeometry x="335" y="550" width="295" height="50" as="geometry"/>
                </mxCell>
                <mxCell id="24" value="" style="rounded=1;whiteSpace=wrap;html=1;" parent="1" vertex="1">
                    <mxGeometry x="165" y="364" width="430" height="50" as="geometry"/>
                </mxCell>
                <mxCell id="2" value="&lt;font style=&quot;font-size: 24px&quot;&gt;MySQL&lt;/font&gt;" style="rounded=1;whiteSpace=wrap;html=1;" parent="1" vertex="1">
                    <mxGeometry x="145" y="940" width="490" height="50" as="geometry"/>
                </mxCell>
                <mxCell id="6" value="&lt;b&gt;&lt;font style=&quot;font-size: 18px&quot;&gt;Vuetify&lt;/font&gt;&lt;/b&gt;" style="rounded=1;whiteSpace=wrap;html=1;" parent="1" vertex="1">
                    <mxGeometry x="185" y="371" width="140" height="36" as="geometry"/>
                </mxCell>
                <mxCell id="7" value="&lt;font style=&quot;font-size: 18px&quot;&gt;&lt;b&gt;Vue Router&lt;/b&gt;&lt;/font&gt;" style="rounded=1;whiteSpace=wrap;html=1;" parent="1" vertex="1">
                    <mxGeometry x="415" y="371" width="160" height="36" as="geometry"/>
                </mxCell>
                <mxCell id="8" value="&lt;font style=&quot;font-size: 18px&quot;&gt;&lt;b&gt;Vue&lt;/b&gt;&lt;/font&gt;" style="rounded=1;whiteSpace=wrap;html=1;" parent="1" vertex="1">
                    <mxGeometry x="150" y="477" width="460" height="33" as="geometry"/>
                </mxCell>
                <mxCell id="9" value="&lt;font style=&quot;font-size: 18px&quot;&gt;&lt;b&gt;AXIOS&lt;/b&gt;&lt;/font&gt;" style="rounded=1;whiteSpace=wrap;html=1;" parent="1" vertex="1">
                    <mxGeometry x="150" y="550" width="160" height="50" as="geometry"/>
                </mxCell>
                <mxCell id="10" value="&lt;font style=&quot;font-size: 18px&quot;&gt;&lt;b&gt;STOMP&lt;/b&gt;&lt;/font&gt;" style="rounded=1;whiteSpace=wrap;html=1;" parent="1" vertex="1">
                    <mxGeometry x="340" y="558.5" width="120" height="33" as="geometry"/>
                </mxCell>
                <mxCell id="11" value="&lt;font style=&quot;font-size: 18px&quot;&gt;&lt;b&gt;SocketJS&lt;/b&gt;&lt;/font&gt;" style="rounded=1;whiteSpace=wrap;html=1;" parent="1" vertex="1">
                    <mxGeometry x="480" y="558.5" width="140" height="33" as="geometry"/>
                </mxCell>
                <mxCell id="12" value="" style="endArrow=none;dashed=1;html=1;strokeWidth=3;" parent="1" edge="1">
                    <mxGeometry width="50" height="50" relative="1" as="geometry">
                        <mxPoint x="40" y="610" as="sourcePoint"/>
                        <mxPoint x="790" y="610" as="targetPoint"/>
                    </mxGeometry>
                </mxCell>
                <mxCell id="14" value="&lt;font style=&quot;font-size: 18px&quot;&gt;&lt;b&gt;Hibernate&lt;/b&gt;&lt;/font&gt;" style="rounded=1;whiteSpace=wrap;html=1;" parent="1" vertex="1">
                    <mxGeometry x="162.5" y="827" width="210" height="33" as="geometry"/>
                </mxCell>
                <mxCell id="15" value="&lt;font style=&quot;font-size: 18px&quot;&gt;&lt;b&gt;Spring JPA&lt;/b&gt;&lt;/font&gt;" style="rounded=1;whiteSpace=wrap;html=1;" parent="1" vertex="1">
                    <mxGeometry x="402.5" y="827" width="210" height="33" as="geometry"/>
                </mxCell>
                <mxCell id="16" value="" style="endArrow=none;dashed=1;html=1;strokeWidth=3;" parent="1" edge="1">
                    <mxGeometry width="50" height="50" relative="1" as="geometry">
                        <mxPoint x="52.5" y="873" as="sourcePoint"/>
                        <mxPoint x="792.5" y="873" as="targetPoint"/>
                    </mxGeometry>
                </mxCell>
                <mxCell id="18" value="&lt;font style=&quot;font-size: 18px&quot;&gt;&lt;b&gt;Controller&lt;/b&gt;&lt;/font&gt;" style="rounded=1;whiteSpace=wrap;html=1;" parent="1" vertex="1">
                    <mxGeometry x="160" y="660" width="150" height="40" as="geometry"/>
                </mxCell>
                <mxCell id="19" value="&lt;font style=&quot;font-size: 18px&quot;&gt;&lt;b&gt;STOMP Broker&lt;/b&gt;&lt;/font&gt;" style="rounded=1;whiteSpace=wrap;html=1;" parent="1" vertex="1">
                    <mxGeometry x="450" y="660" width="160" height="40" as="geometry"/>
                </mxCell>
                <mxCell id="20" value="&lt;font style=&quot;font-size: 18px&quot;&gt;&lt;b&gt;Services&lt;/b&gt;&lt;/font&gt;" style="rounded=1;whiteSpace=wrap;html=1;" parent="1" vertex="1">
                    <mxGeometry x="165" y="730" width="450" height="40" as="geometry"/>
                </mxCell>
                <mxCell id="21" value="&lt;font size=&quot;1&quot;&gt;&lt;b style=&quot;font-size: 30px&quot;&gt;客户端&lt;/b&gt;&lt;/font&gt;" style="text;html=1;align=center;verticalAlign=middle;resizable=0;points=[];autosize=1;strokeColor=none;" parent="1" vertex="1">
                    <mxGeometry x="670" y="477" width="110" height="30" as="geometry"/>
                </mxCell>
                <mxCell id="22" value="&lt;font size=&quot;1&quot;&gt;&lt;b style=&quot;font-size: 30px&quot;&gt;服务端&lt;/b&gt;&lt;/font&gt;" style="text;html=1;align=center;verticalAlign=middle;resizable=0;points=[];autosize=1;strokeColor=none;" parent="1" vertex="1">
                    <mxGeometry x="672.5" y="665" width="110" height="30" as="geometry"/>
                </mxCell>
                <mxCell id="23" value="&lt;font size=&quot;1&quot;&gt;&lt;b style=&quot;font-size: 30px&quot;&gt;数据库&lt;/b&gt;&lt;/font&gt;" style="text;html=1;align=center;verticalAlign=middle;resizable=0;points=[];autosize=1;strokeColor=none;" parent="1" vertex="1">
                    <mxGeometry x="672.5" y="913" width="110" height="30" as="geometry"/>
                </mxCell>
                <mxCell id="25" value="" style="endArrow=classic;html=1;strokeWidth=3;" parent="1" edge="1">
                    <mxGeometry width="50" height="50" relative="1" as="geometry">
                        <mxPoint x="360" y="470" as="sourcePoint"/>
                        <mxPoint x="360" y="420" as="targetPoint"/>
                    </mxGeometry>
                </mxCell>
                <mxCell id="26" value="&lt;font style=&quot;font-size: 22px&quot;&gt;&lt;b&gt;渲染&lt;/b&gt;&lt;/font&gt;" style="text;html=1;align=center;verticalAlign=middle;resizable=0;points=[];autosize=1;strokeColor=none;" parent="1" vertex="1">
                    <mxGeometry x="290" y="440" width="60" height="20" as="geometry"/>
                </mxCell>
                <mxCell id="27" value="" style="endArrow=classic;html=1;strokeWidth=3;" parent="1" edge="1">
                    <mxGeometry width="50" height="50" relative="1" as="geometry">
                        <mxPoint x="400" y="420" as="sourcePoint"/>
                        <mxPoint x="400" y="470" as="targetPoint"/>
                    </mxGeometry>
                </mxCell>
                <mxCell id="28" value="&lt;font style=&quot;font-size: 22px&quot;&gt;&lt;b&gt;反馈&lt;/b&gt;&lt;/font&gt;" style="text;html=1;align=center;verticalAlign=middle;resizable=0;points=[];autosize=1;strokeColor=none;" parent="1" vertex="1">
                    <mxGeometry x="430" y="440" width="60" height="20" as="geometry"/>
                </mxCell>
                <mxCell id="32" value="" style="endArrow=classic;html=1;strokeWidth=3;entryX=0.682;entryY=-0.076;entryDx=0;entryDy=0;entryPerimeter=0;" parent="1" edge="1">
                    <mxGeometry width="50" height="50" relative="1" as="geometry">
                        <mxPoint x="200" y="520" as="sourcePoint"/>
                        <mxPoint x="200.12000000000012" y="546.2" as="targetPoint"/>
                    </mxGeometry>
                </mxCell>
                <mxCell id="33" value="&lt;b&gt;&lt;font style=&quot;font-size: 14px&quot;&gt;请求数据&lt;/font&gt;&lt;/b&gt;" style="text;html=1;align=center;verticalAlign=middle;resizable=0;points=[];autosize=1;strokeColor=none;" parent="1" vertex="1">
                    <mxGeometry x="211" y="520" width="70" height="20" as="geometry"/>
                </mxCell>
                <mxCell id="35" value="" style="endArrow=classic;html=1;strokeWidth=3;entryX=0.217;entryY=1.198;entryDx=0;entryDy=0;entryPerimeter=0;" parent="1" edge="1">
                    <mxGeometry width="50" height="50" relative="1" as="geometry">
                        <mxPoint x="462.5" y="549.9999999999999" as="sourcePoint"/>
                        <mxPoint x="462.31999999999994" y="516.534" as="targetPoint"/>
                    </mxGeometry>
                </mxCell>
                <mxCell id="36" value="&lt;span style=&quot;font-size: 14px&quot;&gt;&lt;b&gt;接收消息&lt;/b&gt;&lt;/span&gt;" style="text;html=1;align=center;verticalAlign=middle;resizable=0;points=[];autosize=1;strokeColor=none;" parent="1" vertex="1">
                    <mxGeometry x="387.5" y="520" width="70" height="20" as="geometry"/>
                </mxCell>
                <mxCell id="37" value="" style="endArrow=classic;html=1;strokeWidth=3;entryX=0.682;entryY=-0.076;entryDx=0;entryDy=0;entryPerimeter=0;" parent="1" edge="1">
                    <mxGeometry width="50" height="50" relative="1" as="geometry">
                        <mxPoint x="496.5" y="519.9999999999999" as="sourcePoint"/>
                        <mxPoint x="496.62" y="546.1999999999999" as="targetPoint"/>
                    </mxGeometry>
                </mxCell>
                <mxCell id="38" value="&lt;b&gt;&lt;font style=&quot;font-size: 14px&quot;&gt;发送消息&lt;/font&gt;&lt;/b&gt;" style="text;html=1;align=center;verticalAlign=middle;resizable=0;points=[];autosize=1;strokeColor=none;" parent="1" vertex="1">
                    <mxGeometry x="507.5" y="520" width="70" height="20" as="geometry"/>
                </mxCell>
                <mxCell id="39" value="" style="endArrow=classic;html=1;strokeWidth=3;entryX=0.217;entryY=1.198;entryDx=0;entryDy=0;entryPerimeter=0;" parent="1" edge="1">
                    <mxGeometry width="50" height="50" relative="1" as="geometry">
                        <mxPoint x="505.0000000000001" y="653.4699999999999" as="sourcePoint"/>
                        <mxPoint x="504.81999999999994" y="620.004" as="targetPoint"/>
                    </mxGeometry>
                </mxCell>
                <mxCell id="40" value="&lt;span style=&quot;font-size: 14px&quot;&gt;&lt;b&gt;接收消息&lt;/b&gt;&lt;/span&gt;" style="text;html=1;align=center;verticalAlign=middle;resizable=0;points=[];autosize=1;strokeColor=none;" parent="1" vertex="1">
                    <mxGeometry x="430" y="623.47" width="70" height="20" as="geometry"/>
                </mxCell>
                <mxCell id="41" value="" style="endArrow=classic;html=1;strokeWidth=3;entryX=0.682;entryY=-0.076;entryDx=0;entryDy=0;entryPerimeter=0;" parent="1" edge="1">
                    <mxGeometry width="50" height="50" relative="1" as="geometry">
                        <mxPoint x="539" y="623.4699999999999" as="sourcePoint"/>
                        <mxPoint x="539.12" y="649.67" as="targetPoint"/>
                    </mxGeometry>
                </mxCell>
                <mxCell id="42" value="&lt;b&gt;&lt;font style=&quot;font-size: 14px&quot;&gt;发送消息&lt;/font&gt;&lt;/b&gt;" style="text;html=1;align=center;verticalAlign=middle;resizable=0;points=[];autosize=1;strokeColor=none;" parent="1" vertex="1">
                    <mxGeometry x="550" y="623.47" width="70" height="20" as="geometry"/>
                </mxCell>
                <mxCell id="47" value="" style="endArrow=classic;html=1;strokeWidth=3;entryX=0.682;entryY=-0.076;entryDx=0;entryDy=0;entryPerimeter=0;" parent="1" edge="1">
                    <mxGeometry width="50" height="50" relative="1" as="geometry">
                        <mxPoint x="205.5" y="633.7999999999998" as="sourcePoint"/>
                        <mxPoint x="205.62" y="659.9999999999999" as="targetPoint"/>
                    </mxGeometry>
                </mxCell>
                <mxCell id="48" value="&lt;b&gt;&lt;font style=&quot;font-size: 14px&quot;&gt;请求数据&lt;/font&gt;&lt;/b&gt;" style="text;html=1;align=center;verticalAlign=middle;resizable=0;points=[];autosize=1;strokeColor=none;" parent="1" vertex="1">
                    <mxGeometry x="216.5" y="633.8000000000001" width="70" height="20" as="geometry"/>
                </mxCell>
                <mxCell id="49" value="" style="endArrow=classic;html=1;strokeWidth=3;" parent="1" edge="1">
                    <mxGeometry width="50" height="50" relative="1" as="geometry">
                        <mxPoint x="320" y="680" as="sourcePoint"/>
                        <mxPoint x="430" y="680" as="targetPoint"/>
                    </mxGeometry>
                </mxCell>
                <mxCell id="50" value="&lt;b&gt;&lt;font style=&quot;font-size: 14px&quot;&gt;转交请求&lt;/font&gt;&lt;/b&gt;" style="text;html=1;align=center;verticalAlign=middle;resizable=0;points=[];autosize=1;strokeColor=none;" parent="1" vertex="1">
                    <mxGeometry x="335" y="660" width="70" height="20" as="geometry"/>
                </mxCell>
                <mxCell id="54" value="" style="endArrow=classic;html=1;strokeWidth=3;exitX=0.5;exitY=1;exitDx=0;exitDy=0;" parent="1" source="18" target="20" edge="1">
                    <mxGeometry width="50" height="50" relative="1" as="geometry">
                        <mxPoint x="420" y="750" as="sourcePoint"/>
                        <mxPoint x="390" y="730" as="targetPoint"/>
                        <Array as="points">
                            <mxPoint x="235" y="720"/>
                            <mxPoint x="380" y="720"/>
                        </Array>
                    </mxGeometry>
                </mxCell>
                <mxCell id="55" value="" style="endArrow=classic;html=1;strokeWidth=3;exitX=0.5;exitY=1;exitDx=0;exitDy=0;entryX=0.524;entryY=0.025;entryDx=0;entryDy=0;entryPerimeter=0;" parent="1" source="19" target="20" edge="1">
                    <mxGeometry width="50" height="50" relative="1" as="geometry">
                        <mxPoint x="245" y="710" as="sourcePoint"/>
                        <mxPoint x="393.33333333333326" y="740" as="targetPoint"/>
                        <Array as="points">
                            <mxPoint x="530" y="720"/>
                            <mxPoint x="401" y="720"/>
                        </Array>
                    </mxGeometry>
                </mxCell>
                <mxCell id="56" value="&lt;span style=&quot;font-size: 14px&quot;&gt;&lt;b&gt;请求服务&lt;/b&gt;&lt;/span&gt;" style="text;html=1;align=center;verticalAlign=middle;resizable=0;points=[];autosize=1;strokeColor=none;" parent="1" vertex="1">
                    <mxGeometry x="360" y="690" width="70" height="20" as="geometry"/>
                </mxCell>
                <mxCell id="62" value="" style="shape=flexArrow;endArrow=classic;html=1;strokeWidth=3;" parent="1" edge="1">
                    <mxGeometry width="50" height="50" relative="1" as="geometry">
                        <mxPoint x="390" y="780" as="sourcePoint"/>
                        <mxPoint x="390" y="820" as="targetPoint"/>
                    </mxGeometry>
                </mxCell>
                <mxCell id="64" value="&lt;span style=&quot;font-size: 14px&quot;&gt;&lt;b&gt;数据读取与存储&lt;/b&gt;&lt;/span&gt;" style="text;html=1;align=center;verticalAlign=middle;resizable=0;points=[];autosize=1;strokeColor=none;" parent="1" vertex="1">
                    <mxGeometry x="410" y="780" width="110" height="20" as="geometry"/>
                </mxCell>
                <mxCell id="66" value="" style="shape=flexArrow;endArrow=classic;html=1;strokeWidth=3;width=4.827586206896552;endSize=5.558620689655173;" parent="1" edge="1">
                    <mxGeometry width="50" height="50" relative="1" as="geometry">
                        <mxPoint x="379.66000000000014" y="893" as="sourcePoint"/>
                        <mxPoint x="379.66000000000014" y="933" as="targetPoint"/>
                    </mxGeometry>
                </mxCell>
                <mxCell id="67" value="&lt;span style=&quot;font-size: 14px&quot;&gt;&lt;b&gt;数据读取与存储&lt;/b&gt;&lt;/span&gt;" style="text;html=1;align=center;verticalAlign=middle;resizable=0;points=[];autosize=1;strokeColor=none;" parent="1" vertex="1">
                    <mxGeometry x="402.5" y="893" width="110" height="20" as="geometry"/>
                </mxCell>
            </root>
        </mxGraphModel>
    </diagram>
    <diagram id="Ztq8U0aT6FPNae0F7mS0" name="第 2 页">
        <mxGraphModel dx="797" dy="431" grid="0" gridSize="10" guides="1" tooltips="1" connect="1" arrows="1" fold="1" page="1" pageScale="1" pageWidth="1169" pageHeight="827" math="0" shadow="0">
            <root>
                <mxCell id="ZjHkmj_BxV_IfT_AoD59-0"/>
                <mxCell id="ZjHkmj_BxV_IfT_AoD59-1" parent="ZjHkmj_BxV_IfT_AoD59-0"/>
                <mxCell id="ZjHkmj_BxV_IfT_AoD59-2" value="" style="rounded=1;whiteSpace=wrap;html=1;" parent="ZjHkmj_BxV_IfT_AoD59-1" vertex="1">
                    <mxGeometry x="160" y="70" width="530" height="60" as="geometry"/>
                </mxCell>
                <mxCell id="ZjHkmj_BxV_IfT_AoD59-3" value="&lt;font style=&quot;font-size: 18px&quot;&gt;&lt;b&gt;界面&lt;/b&gt;&lt;/font&gt;" style="text;html=1;strokeColor=none;fillColor=none;align=center;verticalAlign=middle;whiteSpace=wrap;rounded=0;" parent="ZjHkmj_BxV_IfT_AoD59-1" vertex="1">
                    <mxGeometry x="70" y="90" width="40" height="20" as="geometry"/>
                </mxCell>
                <mxCell id="ZjHkmj_BxV_IfT_AoD59-4" value="&lt;b&gt;&lt;font style=&quot;font-size: 18px&quot;&gt;登录注册界面&lt;/font&gt;&lt;/b&gt;" style="rounded=1;whiteSpace=wrap;html=1;" parent="ZjHkmj_BxV_IfT_AoD59-1" vertex="1">
                    <mxGeometry x="170" y="80" width="200" height="40" as="geometry"/>
                </mxCell>
                <mxCell id="ZjHkmj_BxV_IfT_AoD59-5" value="&lt;b&gt;&lt;font style=&quot;font-size: 18px&quot;&gt;应用主界面&lt;/font&gt;&lt;/b&gt;" style="rounded=1;whiteSpace=wrap;html=1;" parent="ZjHkmj_BxV_IfT_AoD59-1" vertex="1">
                    <mxGeometry x="485" y="80" width="195" height="40" as="geometry"/>
                </mxCell>
                <mxCell id="ZjHkmj_BxV_IfT_AoD59-6" value="&lt;font style=&quot;font-size: 18px&quot;&gt;&lt;b&gt;控制层&lt;/b&gt;&lt;/font&gt;" style="text;html=1;strokeColor=none;fillColor=none;align=center;verticalAlign=middle;whiteSpace=wrap;rounded=0;" parent="ZjHkmj_BxV_IfT_AoD59-1" vertex="1">
                    <mxGeometry x="55" y="160" width="70" height="20" as="geometry"/>
                </mxCell>
                <mxCell id="ZjHkmj_BxV_IfT_AoD59-7" value="" style="rounded=1;whiteSpace=wrap;html=1;" parent="ZjHkmj_BxV_IfT_AoD59-1" vertex="1">
                    <mxGeometry x="160" y="150" width="530" height="60" as="geometry"/>
                </mxCell>
                <mxCell id="ZjHkmj_BxV_IfT_AoD59-8" value="登录注册" style="rounded=1;whiteSpace=wrap;html=1;" parent="ZjHkmj_BxV_IfT_AoD59-1" vertex="1">
                    <mxGeometry x="170" y="160" width="80" height="40" as="geometry"/>
                </mxCell>
                <mxCell id="ZjHkmj_BxV_IfT_AoD59-9" value="好友" style="rounded=1;whiteSpace=wrap;html=1;" parent="ZjHkmj_BxV_IfT_AoD59-1" vertex="1">
                    <mxGeometry x="270" y="160" width="50" height="40" as="geometry"/>
                </mxCell>
                <mxCell id="ZjHkmj_BxV_IfT_AoD59-10" value="群聊" style="rounded=1;whiteSpace=wrap;html=1;" parent="ZjHkmj_BxV_IfT_AoD59-1" vertex="1">
                    <mxGeometry x="340" y="160" width="50" height="40" as="geometry"/>
                </mxCell>
                <mxCell id="ZjHkmj_BxV_IfT_AoD59-11" value="邀请" style="rounded=1;whiteSpace=wrap;html=1;" parent="ZjHkmj_BxV_IfT_AoD59-1" vertex="1">
                    <mxGeometry x="410" y="160" width="50" height="40" as="geometry"/>
                </mxCell>
                <mxCell id="ZjHkmj_BxV_IfT_AoD59-12" value="消息" style="rounded=1;whiteSpace=wrap;html=1;" parent="ZjHkmj_BxV_IfT_AoD59-1" vertex="1">
                    <mxGeometry x="480" y="160" width="50" height="40" as="geometry"/>
                </mxCell>
                <mxCell id="ZjHkmj_BxV_IfT_AoD59-13" value="WS消息代理" style="rounded=1;whiteSpace=wrap;html=1;" parent="ZjHkmj_BxV_IfT_AoD59-1" vertex="1">
                    <mxGeometry x="550" y="160" width="80" height="40" as="geometry"/>
                </mxCell>
                <mxCell id="ZjHkmj_BxV_IfT_AoD59-14" value="文件" style="rounded=1;whiteSpace=wrap;html=1;" parent="ZjHkmj_BxV_IfT_AoD59-1" vertex="1">
                    <mxGeometry x="640" y="160" width="40" height="40" as="geometry"/>
                </mxCell>
                <mxCell id="ZjHkmj_BxV_IfT_AoD59-15" value="&lt;font size=&quot;1&quot;&gt;&lt;b style=&quot;font-size: 14px&quot;&gt;业务逻辑层&lt;/b&gt;&lt;/font&gt;" style="text;html=1;strokeColor=none;fillColor=none;align=center;verticalAlign=middle;whiteSpace=wrap;rounded=0;" parent="ZjHkmj_BxV_IfT_AoD59-1" vertex="1">
                    <mxGeometry x="55" y="250" width="70" height="20" as="geometry"/>
                </mxCell>
                <mxCell id="ZjHkmj_BxV_IfT_AoD59-16" value="" style="rounded=1;whiteSpace=wrap;html=1;" parent="ZjHkmj_BxV_IfT_AoD59-1" vertex="1">
                    <mxGeometry x="160" y="230" width="530" height="60" as="geometry"/>
                </mxCell>
                <mxCell id="ZjHkmj_BxV_IfT_AoD59-17" value="用户" style="rounded=1;whiteSpace=wrap;html=1;" parent="ZjHkmj_BxV_IfT_AoD59-1" vertex="1">
                    <mxGeometry x="170" y="240" width="50" height="40" as="geometry"/>
                </mxCell>
                <mxCell id="ZjHkmj_BxV_IfT_AoD59-18" value="群聊" style="rounded=1;whiteSpace=wrap;html=1;" parent="ZjHkmj_BxV_IfT_AoD59-1" vertex="1">
                    <mxGeometry x="230" y="240" width="50" height="40" as="geometry"/>
                </mxCell>
                <mxCell id="ZjHkmj_BxV_IfT_AoD59-19" value="好友邀请" style="rounded=1;whiteSpace=wrap;html=1;" parent="ZjHkmj_BxV_IfT_AoD59-1" vertex="1">
                    <mxGeometry x="290" y="240" width="60" height="40" as="geometry"/>
                </mxCell>
                <mxCell id="ZjHkmj_BxV_IfT_AoD59-20" value="群聊邀请" style="rounded=1;whiteSpace=wrap;html=1;" parent="ZjHkmj_BxV_IfT_AoD59-1" vertex="1">
                    <mxGeometry x="360" y="240" width="60" height="40" as="geometry"/>
                </mxCell>
                <mxCell id="ZjHkmj_BxV_IfT_AoD59-24" value="简介信息" style="rounded=1;whiteSpace=wrap;html=1;" parent="ZjHkmj_BxV_IfT_AoD59-1" vertex="1">
                    <mxGeometry x="550" y="240" width="70" height="40" as="geometry"/>
                </mxCell>
                <mxCell id="ZjHkmj_BxV_IfT_AoD59-25" value="&lt;font size=&quot;1&quot;&gt;&lt;b style=&quot;font-size: 14px&quot;&gt;数据访问层&lt;/b&gt;&lt;/font&gt;" style="text;html=1;strokeColor=none;fillColor=none;align=center;verticalAlign=middle;whiteSpace=wrap;rounded=0;" parent="ZjHkmj_BxV_IfT_AoD59-1" vertex="1">
                    <mxGeometry x="55" y="330" width="70" height="20" as="geometry"/>
                </mxCell>
                <mxCell id="ZjHkmj_BxV_IfT_AoD59-26" value="" style="rounded=1;whiteSpace=wrap;html=1;" parent="ZjHkmj_BxV_IfT_AoD59-1" vertex="1">
                    <mxGeometry x="160" y="310" width="530" height="60" as="geometry"/>
                </mxCell>
                <mxCell id="ZjHkmj_BxV_IfT_AoD59-29" value="用户" style="rounded=1;whiteSpace=wrap;html=1;" parent="ZjHkmj_BxV_IfT_AoD59-1" vertex="1">
                    <mxGeometry x="170" y="320" width="50" height="40" as="geometry"/>
                </mxCell>
                <mxCell id="ZjHkmj_BxV_IfT_AoD59-30" value="群聊" style="rounded=1;whiteSpace=wrap;html=1;" parent="ZjHkmj_BxV_IfT_AoD59-1" vertex="1">
                    <mxGeometry x="230" y="320" width="50" height="40" as="geometry"/>
                </mxCell>
                <mxCell id="ZjHkmj_BxV_IfT_AoD59-31" value="好友邀请" style="rounded=1;whiteSpace=wrap;html=1;" parent="ZjHkmj_BxV_IfT_AoD59-1" vertex="1">
                    <mxGeometry x="290" y="320" width="60" height="40" as="geometry"/>
                </mxCell>
                <mxCell id="ZjHkmj_BxV_IfT_AoD59-32" value="群聊邀请" style="rounded=1;whiteSpace=wrap;html=1;" parent="ZjHkmj_BxV_IfT_AoD59-1" vertex="1">
                    <mxGeometry x="360" y="320" width="60" height="40" as="geometry"/>
                </mxCell>
                <mxCell id="ZjHkmj_BxV_IfT_AoD59-33" value="好友消息" style="rounded=1;whiteSpace=wrap;html=1;" parent="ZjHkmj_BxV_IfT_AoD59-1" vertex="1">
                    <mxGeometry x="430" y="320" width="50" height="40" as="geometry"/>
                </mxCell>
                <mxCell id="ZjHkmj_BxV_IfT_AoD59-34" value="群聊成员" style="rounded=1;whiteSpace=wrap;html=1;" parent="ZjHkmj_BxV_IfT_AoD59-1" vertex="1">
                    <mxGeometry x="550" y="320" width="60" height="40" as="geometry"/>
                </mxCell>
                <mxCell id="ZjHkmj_BxV_IfT_AoD59-35" value="&lt;font style=&quot;font-size: 24px&quot;&gt;...&lt;/font&gt;" style="rounded=1;whiteSpace=wrap;html=1;" parent="ZjHkmj_BxV_IfT_AoD59-1" vertex="1">
                    <mxGeometry x="620" y="320" width="50" height="40" as="geometry"/>
                </mxCell>
                <mxCell id="ZjHkmj_BxV_IfT_AoD59-36" value="群聊消息" style="rounded=1;whiteSpace=wrap;html=1;" parent="ZjHkmj_BxV_IfT_AoD59-1" vertex="1">
                    <mxGeometry x="490" y="320" width="50" height="40" as="geometry"/>
                </mxCell>
                <mxCell id="ZjHkmj_BxV_IfT_AoD59-37" value="群聊消息" style="rounded=1;whiteSpace=wrap;html=1;" parent="ZjHkmj_BxV_IfT_AoD59-1" vertex="1">
                    <mxGeometry x="490" y="240" width="50" height="40" as="geometry"/>
                </mxCell>
                <mxCell id="ZjHkmj_BxV_IfT_AoD59-38" value="好友消息" style="rounded=1;whiteSpace=wrap;html=1;" parent="ZjHkmj_BxV_IfT_AoD59-1" vertex="1">
                    <mxGeometry x="430" y="240" width="50" height="40" as="geometry"/>
                </mxCell>
                <mxCell id="ZjHkmj_BxV_IfT_AoD59-39" value="头像文件" style="rounded=1;whiteSpace=wrap;html=1;" parent="ZjHkmj_BxV_IfT_AoD59-1" vertex="1">
                    <mxGeometry x="635" y="240" width="50" height="40" as="geometry"/>
                </mxCell>
                <mxCell id="ZjHkmj_BxV_IfT_AoD59-40" value="" style="endArrow=none;dashed=1;html=1;dashPattern=1 3;strokeWidth=4;" parent="ZjHkmj_BxV_IfT_AoD59-1" edge="1">
                    <mxGeometry width="50" height="50" relative="1" as="geometry">
                        <mxPoint x="40" y="140" as="sourcePoint"/>
                        <mxPoint x="730" y="140" as="targetPoint"/>
                    </mxGeometry>
                </mxCell>
                <mxCell id="ZjHkmj_BxV_IfT_AoD59-41" value="" style="endArrow=none;dashed=1;html=1;dashPattern=1 3;strokeWidth=4;" parent="ZjHkmj_BxV_IfT_AoD59-1" edge="1">
                    <mxGeometry width="50" height="50" relative="1" as="geometry">
                        <mxPoint x="40" y="380" as="sourcePoint"/>
                        <mxPoint x="730" y="380" as="targetPoint"/>
                    </mxGeometry>
                </mxCell>
                <mxCell id="ZjHkmj_BxV_IfT_AoD59-43" value="" style="shape=datastore;whiteSpace=wrap;html=1;" parent="ZjHkmj_BxV_IfT_AoD59-1" vertex="1">
                    <mxGeometry x="280" y="414" width="290" height="60" as="geometry"/>
                </mxCell>
                <mxCell id="ZjHkmj_BxV_IfT_AoD59-44" value="&lt;span style=&quot;font-size: 14px&quot;&gt;&lt;b&gt;数据库&lt;/b&gt;&lt;/span&gt;" style="text;html=1;strokeColor=none;fillColor=none;align=center;verticalAlign=middle;whiteSpace=wrap;rounded=0;" parent="ZjHkmj_BxV_IfT_AoD59-1" vertex="1">
                    <mxGeometry x="55" y="434" width="70" height="20" as="geometry"/>
                </mxCell>
            </root>
        </mxGraphModel>
    </diagram>
</mxfile>